<?xml version="1.0" standalone="no"?><!DOCTYPE svg PUBLIC "-//W3C//DTD SVG 1.1//EN" "http://www.w3.org/Graphics/SVG/1.1/DTD/svg11.dtd"><svg class="icon" width="200px" height="180.28px" viewBox="0 0 1136 1024" version="1.1" xmlns="http://www.w3.org/2000/svg"><path fill="#333333" d="M738.566 255.887H290.583c-17.66 0-32.076 14.417-32.076 32.076s14.416 32.076 32.076 32.076h447.983c17.66 0 32.076-14.416 32.076-32.076-0.36-17.66-14.416-32.076-32.076-32.076z m0 191.736H290.583c-17.66 0-32.076 14.416-32.076 32.076s14.416 32.076 32.076 32.076h447.983c17.66 0 32.076-14.416 32.076-32.076-0.36-17.66-14.416-32.076-32.076-32.076zM618.551 703.51c13.335 0 24.147-14.416 24.147-32.076s-10.812-32.076-24.147-32.076H282.654c-13.335 0-24.147 14.416-24.147 32.076s10.812 32.076 24.147 32.076h335.897zM990.49 878.667l90.462-90.462c12.614-12.614 12.614-32.797 0-45.41s-32.797-12.615-45.411 0l-90.462 90.46-90.462-90.46c-12.614-12.615-32.796-12.615-45.41 0s-12.615 32.796 0 45.41l90.461 90.462-90.462 90.461c-12.614 12.615-12.614 32.797 0 45.411s32.797 12.615 45.411 0l90.462-90.461 90.462 90.461c12.614 12.615 32.796 12.615 45.41 0s12.615-32.796 0-45.41l-90.461-90.462zM418.527 64.152h192.095c17.66 0 32.076-14.416 32.076-32.076S628.282 0 610.622 0H418.527c-17.66 0-32.076 14.416-32.076 32.076s14.416 32.076 32.076 32.076zM674.414 959.397h-543.85V64.152h192.095V0H130.563C95.604 0 66.772 28.832 66.772 64.152v895.606c0 34.96 28.832 63.791 63.791 63.791h543.851c17.66 0 32.076-14.416 32.076-32.076s-14.416-32.076-32.076-32.076zM898.225 479.7v64.152c0 17.66 14.417 32.076 32.076 32.076s32.076-14.416 32.076-32.076v-479.7C962.377 28.832 933.545 0 898.225 0H706.49v64.152h191.735v415.547z" /></svg>