<?xml version="1.0" standalone="no"?><!DOCTYPE svg PUBLIC "-//W3C//DTD SVG 1.1//EN" "http://www.w3.org/Graphics/SVG/1.1/DTD/svg11.dtd"><svg class="icon" width="200px" height="200.00px" viewBox="0 0 1024 1024" version="1.1" xmlns="http://www.w3.org/2000/svg"><path fill="#333333" d="M794.796 865.495c0 35.35-26.511 61.862-61.862 61.862H291.066c-35.35 0-61.862-26.513-61.862-61.862v-649.55h565.592v649.549zM352.928 109.897c0-8.835 4.418-13.254 13.256-13.254h296.05c8.838 0 13.257 4.419 13.257 13.256v35.35H357.346c-4.418 0-4.418-35.35-4.418-35.35z m623.035 35.351H741.772V109.9c0-48.605-39.768-83.956-83.956-83.956h-296.05c-48.608 0-83.957 39.77-83.957 83.956v35.35H43.62c-22.094 0-35.35 17.674-35.35 35.35s17.674 35.349 35.35 35.349h110.467v649.547c0 75.119 61.862 136.98 136.98 136.98h441.868c75.118 0 136.98-61.861 136.98-136.98v-649.55h110.467c22.094 0 35.35-17.675 35.35-35.348s-17.674-35.35-39.768-35.35zM512 816.89c22.094 0 35.349-17.675 35.349-35.35V388.277c0-22.094-17.674-35.35-35.349-35.35s-35.349 17.673-35.349 35.348V781.54c0 17.676 13.255 35.351 35.349 35.351m-172.329 0c22.094 0 35.349-17.675 35.349-35.35V388.277c0-22.094-17.674-35.35-35.349-35.35s-35.349 17.673-35.349 35.348V781.54c0 17.676 17.674 35.351 35.35 35.351m344.657 0c22.094 0 35.349-17.675 35.349-35.35V388.277c0-22.094-17.674-35.35-35.35-35.35S648.98 370.6 648.98 388.276V781.54c0 17.676 13.255 35.351 35.349 35.351" /></svg>