<?xml version="1.0" standalone="no"?><!DOCTYPE svg PUBLIC "-//W3C//DTD SVG 1.1//EN" "http://www.w3.org/Graphics/SVG/1.1/DTD/svg11.dtd"><svg class="icon" width="200px" height="200.00px" viewBox="0 0 1024 1024" version="1.1" xmlns="http://www.w3.org/2000/svg"><path fill="#333333" d="M503.1 918c-14.2 0-27.7-5.5-37.9-15.5l-0.5-0.5-65.3-66.6h-131c-57.8 0-112.2-22.5-153.1-63.4C74.5 731.1 52 676.8 52 618.9V323.5c0-57.8 22.5-112.2 63.4-153.1 40.9-40.9 95.2-63.4 153.1-63.4h487.1c57.8 0 112.2 22.5 153.1 63.4 40.9 40.9 63.4 95.2 63.4 153.1V619c0 57.8-22.5 112.2-63.4 153.1s-95.2 63.4-153.1 63.4H606.8l-65 66.3c-10.1 10.3-23.6 16.1-38.1 16.2h-0.6z m-89.3-150.6h14.3l75 76.6 75-76.6h177.4c39.7 0 76.9-15.4 105-43.5 28-28 43.5-65.3 43.5-105V323.5c0-39.7-15.4-76.9-43.5-105-28-28-65.3-43.5-105-43.5h-487c-39.7 0-76.9 15.4-105 43.5-28 28-43.5 65.3-43.5 105V619c0 39.7 15.4 76.9 43.5 105 28 28 65.3 43.5 105 43.5l145.3-0.1z"  /><path fill="#333333" d="M512 477m-59 0a59 59 0 1 0 118 0 59 59 0 1 0-118 0Z"  /><path fill="#333333" d="M274 477m-59 0a59 59 0 1 0 118 0 59 59 0 1 0-118 0Z"  /><path fill="#333333" d="M760 477m-59 0a59 59 0 1 0 118 0 59 59 0 1 0-118 0Z"  /></svg>