<?xml version="1.0" standalone="no"?><!DOCTYPE svg PUBLIC "-//W3C//DTD SVG 1.1//EN" "http://www.w3.org/Graphics/SVG/1.1/DTD/svg11.dtd"><svg class="icon" width="200px" height="200.00px" viewBox="0 0 1024 1024" version="1.1" xmlns="http://www.w3.org/2000/svg"><path fill="#333333" d="M512 967c-61.4 0-121-12-177.1-35.8-54.2-22.9-102.8-55.7-144.6-97.5s-74.6-90.4-97.5-144.6C69 633 57 573.4 57 512c0-61.4 12-121 35.8-177.1 22.9-54.2 55.7-102.8 97.5-144.6s90.4-74.6 144.6-97.5C391 69 450.6 57 512 57c61.4 0 121 12 177.1 35.8 54.2 22.9 102.8 55.7 144.6 97.5s74.6 90.4 97.5 144.6C955 391 967 450.6 967 512c0 61.4-12 121-35.8 177.1-22.9 54.2-55.7 102.8-97.5 144.6s-90.4 74.6-144.6 97.5C633 955 573.4 967 512 967z m0-842c-52.3 0-102.9 10.2-150.6 30.4-46.1 19.5-87.5 47.4-123 83-35.6 35.6-63.5 76.9-83 123C135.2 409.1 125 459.7 125 512s10.2 102.9 30.4 150.6c19.5 46.1 47.4 87.5 83 123 35.6 35.6 76.9 63.5 123 83C409.1 888.8 459.7 899 512 899s102.9-10.2 150.6-30.4c46.1-19.5 87.5-47.4 123-83s63.5-76.9 83-123C888.8 614.9 899 564.3 899 512s-10.2-102.9-30.4-150.6c-19.5-46.1-47.4-87.5-83-123s-76.9-63.5-123-83C614.9 135.2 564.3 125 512 125z"  /><path fill="#333333" d="M511 506h180c21 0 38 17 38 38s-17 38-38 38H511c-21 0-38-17-38-38s17-38 38-38z"  /><path fill="#333333" d="M549 280v264c0 21-17 38-38 38s-38-17-38-38V280c0-21 17-38 38-38s38 17 38 38z"  /></svg>