<?xml version="1.0" standalone="no"?><!DOCTYPE svg PUBLIC "-//W3C//DTD SVG 1.1//EN" "http://www.w3.org/Graphics/SVG/1.1/DTD/svg11.dtd"><svg class="icon" width="200px" height="200.00px" viewBox="0 0 1024 1024" version="1.1" xmlns="http://www.w3.org/2000/svg"><path fill="#333333" d="M807 861H217c-84.9 0-154-69.1-154-154V317c0-84.9 69.1-154 154-154h590c84.9 0 154 69.1 154 154v390c0 84.9-69.1 154-154 154zM217 231c-47.4 0-86 38.6-86 86v390c0 47.4 38.6 86 86 86h590c47.4 0 86-38.6 86-86V317c0-47.4-38.6-86-86-86H217z"  /><path fill="#333333" d="M351 580c-73.9 0-134-60.1-134-134s60.1-134 134-134 134 60.1 134 134-60.1 134-134 134z m0-200c-36.4 0-66 29.6-66 66s29.6 66 66 66 66-29.6 66-66-29.6-66-66-66z"  /><path fill="#333333" d="M481 712c-18.8 0-34-15.2-34-34 0-52.9-43.1-96-96-96s-96 43.1-96 96c0 18.8-15.2 34-34 34s-34-15.2-34-34c0-90.4 73.6-164 164-164s164 73.6 164 164c0 18.8-15.2 34-34 34z"  /><path fill="#333333" d="M608.8 345.9h182c18.8 0 34 15.2 34 34s-15.2 34-34 34h-182c-18.8 0-34-15.2-34-34s15.2-34 34-34z"  /><path fill="#333333" d="M608.8 479.9h132c18.8 0 34 15.2 34 34s-15.2 34-34 34h-132c-18.8 0-34-15.2-34-34s15.2-34 34-34z"  /><path fill="#333333" d="M608.8 613.9h92c18.8 0 34 15.2 34 34s-15.2 34-34 34h-92c-18.8 0-34-15.2-34-34s15.2-34 34-34z"  /></svg>