<?xml version="1.0" standalone="no"?><!DOCTYPE svg PUBLIC "-//W3C//DTD SVG 1.1//EN" "http://www.w3.org/Graphics/SVG/1.1/DTD/svg11.dtd"><svg class="icon" width="200px" height="200.00px" viewBox="0 0 1024 1024" version="1.1" xmlns="http://www.w3.org/2000/svg"><path fill="#333333" d="M708.2 974.8h-505C138 974.8 85 921.7 85 856.6V309.4c0-65.2 53-118.2 118.2-118.2h505.1c65.2 0 118.2 53 118.2 118.2v547.1c-0.1 65.2-53.1 118.3-118.3 118.3z m-505-715.5c-27.7 0-50.2 22.5-50.2 50.2v547.1c0 27.7 22.5 50.2 50.2 50.2h505.1c27.7 0 50.2-22.5 50.2-50.2V309.4c0-27.7-22.5-50.2-50.2-50.2H203.2z"  /><path fill="#333333" d="M834.5 848.5H797v-68h37.5c27.7 0 50.2-22.5 50.2-50.2V183.2c0-27.7-22.5-50.2-50.2-50.2H329.4c-27.7 0-50.2 22.5-50.2 50.2V230h-68v-46.8C211.3 118 264.3 65 329.4 65h505.1c65.2 0 118.2 53 118.2 118.2v547.1c0 65.2-53 118.2-118.2 118.2z"  /></svg>