<?xml version="1.0" standalone="no"?><!DOCTYPE svg PUBLIC "-//W3C//DTD SVG 1.1//EN" "http://www.w3.org/Graphics/SVG/1.1/DTD/svg11.dtd"><svg class="icon" width="200px" height="200.00px" viewBox="0 0 1024 1024" version="1.1" xmlns="http://www.w3.org/2000/svg"><path fill="#333333" d="M785.7 360.1H724v-75.4c0-58.4-22.7-113.3-64-154.5-41.3-41.3-96.2-64-154.5-64s-113.3 22.7-154.5 64c-41.3 41.3-64 96.2-64 154.5v75.4h-61.8c-56.1 0-101.8 45.7-101.8 101.8v396.6c0 56.1 45.7 101.8 101.8 101.8h560.7c56.1 0 101.8-45.7 101.8-101.8V461.9c-0.1-56.2-45.8-101.8-102-101.8z m-434.8-75.4c0-85.2 69.3-154.6 154.6-154.6S660 199.5 660 284.7v75.4H350.9v-75.4z m472.7 573.8c0 20.9-17 37.8-37.8 37.8H225.1c-20.9 0-37.8-17-37.8-37.8V461.9c0-20.9 17-37.8 37.8-37.8h560.7c20.9 0 37.8 17 37.8 37.8v396.6zM505.4 566.3c-17.7 0-32 14.3-32 32v123.8c0 17.7 14.3 32 32 32s32-14.3 32-32V598.3c0-17.7-14.3-32-32-32z" /></svg>