<?xml version="1.0" standalone="no"?><!DOCTYPE svg PUBLIC "-//W3C//DTD SVG 1.1//EN" "http://www.w3.org/Graphics/SVG/1.1/DTD/svg11.dtd"><svg class="icon" width="200px" height="200.00px" viewBox="0 0 1024 1024" version="1.1" xmlns="http://www.w3.org/2000/svg"><path fill="#333333" d="M761.498 144.435h-83.753c1.679 4.936 1.679 9.913 1.679 14.848 0 36.373-23.44 71.035-50.227 71.035H394.803c-26.788 0-50.227-34.662-50.227-71.035 0-4.935 0-9.912 1.68-14.848h-83.754c-63.61 0-78.684 39.64-78.684 97.465v573.245c0 62.802 21.76 95.836 82.033 95.836h492.298c60.263 0 82.033-33.024 82.033-95.836V241.9c0-57.826-15.074-97.465-78.684-97.465zM344.535 501.258h334.91c13.393 0 23.439 14.879 23.439 28.099 0 13.21-8.376 28.057-20.091 28.057H341.187c-11.725 0-20.091-14.848-20.091-28.057 0-13.22 10.045-28.099 23.439-28.099zM679.414 344.34c8.397 0 16.814 6.78 20.91 16.088l0.184 0.43c0.072 0.163 0.133 0.317 0.195 0.48 1.095 2.776 1.812 5.684 2.078 8.562 0 0.03 0 0.061 0.01 0.092 0.031 0.368 0.062 0.747 0.083 1.116 0.02 0.43 0.03 0.86 0.03 1.3 0 13.21-13.394 28.099-25.16 28.099H346.256c-11.765 0-25.16-14.89-25.16-28.099 0-0.43 0.01-0.87 0.031-1.3 0.02-0.369 0.041-0.748 0.082-1.116 0-0.031 0-0.062 0.01-0.092 0.267-2.878 0.984-5.786 2.08-8.561 0.06-0.164 0.132-0.318 0.194-0.481l0.184-0.43c4.096-9.309 12.524-16.088 20.91-16.088h334.828z m5.069 365.097H339.517c-11.724 0-25.108-16.558-25.108-31.395 0-13.21 10.045-26.42 23.44-26.42h348.313c13.394 0 23.44 13.21 23.44 26.42 0 14.837-13.395 31.395-25.12 31.395zM423.27 198.953h177.46c20.09 0 38.512-19.866 38.512-42.988S622.5 113.03 600.73 113.03H423.27c-21.76 0-38.502 18.186-38.502 42.936 0 24.802 16.732 42.988 38.502 42.988z" /></svg>