<?xml version="1.0" standalone="no"?><!DOCTYPE svg PUBLIC "-//W3C//DTD SVG 1.1//EN" "http://www.w3.org/Graphics/SVG/1.1/DTD/svg11.dtd"><svg class="icon" width="200px" height="200.00px" viewBox="0 0 1024 1024" version="1.1" xmlns="http://www.w3.org/2000/svg"><path fill="#333333" d="M833.792 407.082667a21.333333 21.333333 0 0 0 21.333333-21.333334v-64c0-58.794667-47.829333-106.666667-106.666666-106.666666H533.333333V192a21.333333 21.333333 0 0 0-42.666666 0v23.082667h-213.333334a106.794667 106.794667 0 0 0-106.666666 106.666666v256c0 58.837333 47.829333 106.666667 106.666666 106.666667h213.333334v49.877333l-138.581334 79.189334a21.333333 21.333333 0 1 0 21.162667 37.034666L512 771.242667l138.752 79.274666a21.376 21.376 0 0 0 21.162667-37.034666L533.333333 734.293333v-49.877333h215.125334c58.837333 0 106.666667-47.829333 106.666666-106.666667v-64a21.333333 21.333333 0 0 0-42.666666 0v64c0 35.328-28.714667 64-64 64H277.333333c-35.285333 0-64-28.672-64-64v-256c0-35.285333 28.714667-64 64-64h471.125334c35.285333 0 64 28.714667 64 64v64a21.333333 21.333333 0 0 0 21.333333 21.333334M643.114667 330.24l-108.032 177.066667-66.261334-131.157334c-0.384-0.725333-1.024-1.194667-1.493333-1.877333a20.010667 20.010667 0 0 0-6.101333-6.101333c-0.64-0.426667-1.109333-1.066667-1.834667-1.450667-0.426667-0.213333-0.981333-0.170667-1.493333-0.426667a20.394667 20.394667 0 0 0-4.266667-1.152 19.242667 19.242667 0 0 0-3.797333-0.469333c-1.365333 0-2.688 0.256-4.053334 0.512a19.029333 19.029333 0 0 0-4.053333 1.109333c-0.512 0.213333-1.066667 0.213333-1.578667 0.426667-0.725333 0.384-1.194667 1.066667-1.877333 1.493333a18.645333 18.645333 0 0 0-5.973333 5.973334c-0.512 0.725333-1.194667 1.194667-1.578667 1.962666l-87.125333 172.458667a21.333333 21.333333 0 0 0 38.101333 19.2l68.096-134.698667 64.469333 127.573334c0.213333 0.426667 0.64 0.597333 0.853334 0.938666 1.706667 2.986667 3.925333 5.76 7.082666 7.68h0.042667a21.546667 21.546667 0 0 0 20.693333 0.853334l0.341334-0.256c0.512-0.298667 0.896-0.768 1.408-1.109334a20.352 20.352 0 0 0 5.973333-5.674666c0.213333-0.426667 0.64-0.512 0.896-0.896l128-209.749334a21.418667 21.418667 0 0 0-7.125333-29.354666 21.248 21.248 0 0 0-29.312 7.125333" /></svg>