<?xml version="1.0" standalone="no"?><!DOCTYPE svg PUBLIC "-//W3C//DTD SVG 1.1//EN" "http://www.w3.org/Graphics/SVG/1.1/DTD/svg11.dtd"><svg class="icon" width="200px" height="200.00px" viewBox="0 0 1024 1024" version="1.1" xmlns="http://www.w3.org/2000/svg"><path fill="#333333" d="M888.68161 857.569677l-175.091014-175.091014a21.331751 21.331751 0 0 0-30.163096 0c-0.85327 0.85327-1.279905 1.919858-1.919858 2.858454-100.98451 98.382037-259.650076 112.162348-377.699987 32.338935C166.175196 624.669617 129.228603 438.059457 221.424431 301.621576A295.444755 295.444755 0 0 1 357.307687 192.061702a301.716289 301.716289 0 0 1 280.811173 30.632395 301.716289 301.716289 0 0 1 133.238118 248.941537 294.719475 294.719475 0 0 1-22.355675 114.082205 21.331751 21.331751 0 0 0 39.421076 16.297458 336.572371 336.572371 0 0 0 25.598102-130.550317 344.337128 344.337128 0 0 0-152.01006-284.138927A344.294465 344.294465 0 0 0 341.522191 152.512635 337.681622 337.681622 0 0 0 186.056388 277.772679c-105.378851 155.935101-63.227311 369.167287 93.859705 475.271417a344.635773 344.635773 0 0 0 193.180339 59.046287 341.180029 341.180029 0 0 0 225.177966-84.601725l160.244116 160.244115a21.246424 21.246424 0 0 0 30.163096 0 21.331751 21.331751 0 0 0 0-30.163096" /></svg>