<?xml version="1.0" standalone="no"?><!DOCTYPE svg PUBLIC "-//W3C//DTD SVG 1.1//EN" "http://www.w3.org/Graphics/SVG/1.1/DTD/svg11.dtd"><svg class="icon" width="200px" height="200.00px" viewBox="0 0 1024 1024" version="1.1" xmlns="http://www.w3.org/2000/svg"><path fill="#333333" d="M830.122667 573.653333a18.944 18.944 0 0 0-22.058667 15.36 322.901333 322.901333 0 0 1-318.549333 266.709334c-178.346667 0-323.413333-145.152-323.413334-323.498667a323.328 323.328 0 0 1 323.456-323.498667 323.456 323.456 0 0 1 318.378667 266.112 19.029333 19.029333 0 0 0 37.504-6.698666 357.546667 357.546667 0 0 0-56.149333-138.112A361.386667 361.386667 0 0 0 489.514667 170.666667 361.429333 361.429333 0 0 0 128 532.224c0 199.338667 162.176 361.557333 361.514667 361.557333a360.832 360.832 0 0 0 356.010666-298.069333 18.986667 18.986667 0 0 0-15.402666-22.058667M655.786667 363.776a20.181333 20.181333 0 0 0-28.544 0l-139.946667 139.946667-139.946667-139.946667a20.181333 20.181333 0 0 0-28.458666 28.458667l139.946666 139.946666-139.946666 139.946667a20.181333 20.181333 0 0 0 28.458666 28.501333l139.946667-139.946666 139.946667 139.946666a20.053333 20.053333 0 0 0 28.501333 0 20.181333 20.181333 0 0 0 0-28.458666l-139.946667-139.946667 139.946667-139.946667a20.181333 20.181333 0 0 0 0-28.501333" /></svg>