<?xml version="1.0" standalone="no"?><!DOCTYPE svg PUBLIC "-//W3C//DTD SVG 1.1//EN" "http://www.w3.org/Graphics/SVG/1.1/DTD/svg11.dtd"><svg class="icon" width="200px" height="200.00px" viewBox="0 0 1024 1024" version="1.1" xmlns="http://www.w3.org/2000/svg"><path fill="#333333" d="M782.762667 261.376l-327.68 372.906667-249.941334-81.493334 577.621334-291.413333z m-278.357334 385.621333l-2.901333-0.938666 334.165333-380.16-54.741333 261.888a21.290667 21.290667 0 1 0 41.728 8.746666l71.125333-340.138666a21.290667 21.290667 0 0 0-30.506666-23.424L139.733333 538.026667a21.333333 21.333333 0 0 0 2.986667 39.296l300.032 97.792-0.042667 157.482666a21.333333 21.333333 0 1 0 42.666667 0l0.085333-146.901333 5.717334 1.834667a21.290667 21.290667 0 1 0 13.226666-40.533334zM704 640.853333a64 64 0 1 0 0.042667 128 64 64 0 0 0-0.042667-128M704 811.52a106.794667 106.794667 0 0 1-106.666667-106.666667c0-58.837333 47.829333-106.666667 106.666667-106.666666 58.88 0 106.666667 47.829333 106.666667 106.666666 0 58.752-47.786667 106.666667-106.666667 106.666667m0-256c-82.346667 0-149.333333 66.986667-149.333333 149.333333s66.986667 149.333333 149.333333 149.333334 149.333333-66.986667 149.333333-149.333334-66.986667-149.333333-149.333333-149.333333" /></svg>