<?xml version="1.0" standalone="no"?><!DOCTYPE svg PUBLIC "-//W3C//DTD SVG 1.1//EN" "http://www.w3.org/Graphics/SVG/1.1/DTD/svg11.dtd"><svg class="icon" width="200px" height="200.00px" viewBox="0 0 1024 1024" version="1.1" xmlns="http://www.w3.org/2000/svg"><path fill="#333333" d="M837.461333 535.466667a19.072 19.072 0 0 0-22.314666 15.573333 326.314667 326.314667 0 0 1-321.792 269.226667c-180.266667 0-326.912-146.645333-326.912-326.912a326.826667 326.826667 0 0 1 597.930666-182.784 323.157333 323.157333 0 0 1 50.773334 125.056 19.242667 19.242667 0 0 0 37.888-6.698667 360.704 360.704 0 0 0-56.789334-139.946667A365.098667 365.098667 0 0 0 493.312 128 365.226667 365.226667 0 0 0 128 493.354667c0 201.472 163.882667 365.354667 365.354667 365.354666a364.672 364.672 0 0 0 359.68-300.885333 19.2 19.2 0 0 0-15.573334-22.314667M650.538667 389.504l-199.978667 200.021333-119.765333-119.765333a18.816 18.816 0 0 0-26.624 26.581333l132.224 132.181334c0.128 0.170667 0.341333 0.213333 0.469333 0.341333 0.170667 0.170667 0.213333 0.426667 0.426667 0.597333a18.773333 18.773333 0 0 0 26.581333 0l213.290667-213.333333a18.816 18.816 0 0 0-26.624-26.624" /></svg>