<?xml version="1.0" standalone="no"?><!DOCTYPE svg PUBLIC "-//W3C//DTD SVG 1.1//EN" "http://www.w3.org/Graphics/SVG/1.1/DTD/svg11.dtd"><svg class="icon" width="200px" height="200.00px" viewBox="0 0 1024 1024" version="1.1" xmlns="http://www.w3.org/2000/svg"><path fill="#333333" d="M669.696 584.618667a20.821333 20.821333 0 0 0-27.093333 11.392 156.288 156.288 0 0 1-145.493334 96.853333c-86.442667 0-156.842667-69.504-156.842666-154.965333 0-31.061333 9.216-61.013333 26.709333-86.570667a157.184 157.184 0 0 1 130.133333-68.48c52.224 0 100.864 25.6 130.133334 68.352 6.058667 9.002667 11.264 18.602667 15.36 28.501333a20.906667 20.906667 0 0 0 27.093333 11.349334 20.693333 20.693333 0 0 0 11.392-27.050667A198.869333 198.869333 0 0 0 497.066667 341.333333a198.826667 198.826667 0 0 0-164.565334 86.656A194.261333 194.261333 0 0 0 298.666667 537.898667c0 108.330667 89.045333 196.522667 198.442666 196.522666a197.674667 197.674667 0 0 0 184.021334-122.794666 20.693333 20.693333 0 0 0-11.434667-27.008M765.226667 577.109333a18.816 18.816 0 0 0-10.410667 7.978667 18.346667 18.346667 0 0 0-4.053333 7.68c-6.826667 29.44-18.773333 57.258667-35.370667 82.773333a18.773333 18.773333 0 0 0 1.28 22.058667l27.306667 47.104-41.002667 41.002667-49.109333-28.288a18.773333 18.773333 0 0 0-14.634667-1.749334 18.474667 18.474667 0 0 0-9.386667 2.389334 264.192 264.192 0 0 1-78.933333 31.402666 19.114667 19.114667 0 0 0-16.128 13.866667l-14.634667 54.613333h-58.026666l-14.72-55.082666a18.944 18.944 0 0 0-16.298667-13.866667c-0.128 0-0.170667-0.085333-0.256-0.128a265.173333 265.173333 0 0 1-81.664-34.474667c-1.109333-0.682667-2.346667-0.896-3.498667-1.322666-0.725333-0.298667-1.365333-0.64-2.133333-0.853334a18.346667 18.346667 0 0 0-6.058667-0.426666l-0.853333 0.042666a18.688 18.688 0 0 0-9.045333 3.541334l-46.933334 27.093333-41.130666-41.002667 28.672-49.408a18.773333 18.773333 0 0 0-2.304-21.888c-0.170667-0.256-0.170667-0.512-0.298667-0.810666a258.432 258.432 0 0 1-31.488-76.586667c-0.213333-0.981333-0.853333-1.664-1.152-2.56a18.688 18.688 0 0 0-13.013333-13.184l-53.930667-14.634667v-58.112l53.930667-14.634666a18.944 18.944 0 0 0 13.866666-16.256c0.128-0.426667 0.554667-0.597333 0.64-1.066667 6.826667-28.245333 18.261333-55.04 34.005334-79.616 0.810667-1.237333 1.066667-2.645333 1.578666-3.968 0.341333-0.938667 0.853333-1.792 1.024-2.773333 0.085333-0.426667 0.042667-0.810667 0.085334-1.194667a18.432 18.432 0 0 0-2.005334-12.586667l-28.330666-48.981333 41.088-41.045333 49.450666 28.629333c2.986667 1.706667 6.229333 2.56 9.514667 2.56 3.626667 0 7.082667-1.28 10.112-3.242667 1.066667-0.426667 2.133333-0.256 3.114667-0.853333a265.429333 265.429333 0 0 1 78.293333-31.786667 18.218667 18.218667 0 0 0 5.717333-2.56 17.450667 17.450667 0 0 0 4.821334-4.437333 18.133333 18.133333 0 0 0 1.834666-2.773333c0.853333-1.365333 2.176-2.218667 2.645334-3.882667l14.677333-55.125333h58.026667l14.677333 54.613333c0.426667 1.706667 1.92 2.602667 2.688 4.053333 0.512 0.853333 1.066667 1.706667 1.706667 2.474667a17.066667 17.066667 0 0 0 5.205333 4.608 18.773333 18.773333 0 0 0 5.546667 2.474667c29.44 6.4 57.344 17.706667 82.901333 33.621333 0.554667 0.341333 1.28 0.213333 1.834667 0.512a19.072 19.072 0 0 0 10.026666 3.072 19.029333 19.029333 0 0 0 9.472-2.56l49.450667-28.586667 41.045333 40.96-28.288 49.066667a18.56 18.56 0 0 0-0.426666 17.408c0.469333 1.28 0.725333 2.688 1.493333 3.882667 15.232 24.192 26.325333 50.474667 32.981333 78.08 0.256 1.109333 1.28 1.706667 1.706667 2.688a18.773333 18.773333 0 0 0 13.098667 14.506666l50.048 14.506667v58.538667l-50.048 14.506666zM853.333333 493.098667c0-0.725333-0.341333-1.365333-0.426666-2.048a18.730667 18.730667 0 0 0-13.312-19.541334l-54.784-15.786666a295.978667 295.978667 0 0 0-30.421334-72.533334l30.549334-52.906666a18.730667 18.730667 0 0 0-4.266667-23.552c-0.426667-0.512-0.64-1.194667-1.152-1.706667l-56.96-56.917333c-0.554667-0.512-1.237333-0.768-1.834667-1.194667a18.773333 18.773333 0 0 0-23.509333-4.181333l-53.376 30.890666a301.013333 301.013333 0 0 0-75.093333-30.549333l-15.658667-58.325333a18.730667 18.730667 0 0 0-19.712-13.653334c-0.682667-0.085333-1.28-0.426667-2.005333-0.426666h-80.554667c-0.768 0-1.365333 0.341333-2.133333 0.426666a18.858667 18.858667 0 0 0-19.626667 13.696l-15.701333 58.922667a302.08 302.08 0 0 0-71.466667 29.269333l-53.589333-31.018666a18.858667 18.858667 0 0 0-23.552 4.181333c-0.554667 0.426667-1.28 0.64-1.792 1.194667L205.994667 304.256c-0.554667 0.512-0.725333 1.194667-1.194667 1.749333a18.688 18.688 0 0 0-4.224 23.552l30.506667 52.778667a295.338667 295.338667 0 0 0-30.976 73.386667l-58.069334 15.701333a18.773333 18.773333 0 0 0-13.653333 19.584c-0.042667 0.725333-0.384 1.365333-0.384 2.090667v80.469333c0 0.725333 0.341333 1.365333 0.426667 2.090667a18.773333 18.773333 0 0 0 13.610666 19.626666l58.026667 15.744c6.826667 25.002667 16.64 48.981333 29.696 71.552l-30.464 52.48a18.688 18.688 0 0 0 4.181333 23.466667c0.426667 0.597333 0.64 1.28 1.194667 1.834667l56.96 56.917333c0.853333 0.768 1.877333 1.152 2.816 1.792a18.602667 18.602667 0 0 0 13.013333 6.101333 18.773333 18.773333 0 0 0 9.472-2.517333l52.821334-30.421333c23.210667 13.44 47.786667 23.808 73.6 30.72l15.701333 58.922666c2.261333 8.533333 9.941333 14.122667 18.346667 14.122667 0.725333 0 1.408-0.213333 2.090666-0.298667 0.469333 0.042667 0.853333 0.298667 1.28 0.298667h80.597334c0.469333 0 0.853333-0.256 1.322666-0.298667 0.682667 0.085333 1.365333 0.298667 2.005334 0.298667a19.072 19.072 0 0 0 18.346666-14.08l15.701334-58.24a303.744 303.744 0 0 0 73.088-29.312l54.784 31.573333c2.986667 1.706667 6.229333 2.56 9.429333 2.56a18.773333 18.773333 0 0 0 13.098667-6.144c0.896-0.64 1.962667-0.981333 2.730666-1.834666l57.002667-56.874667c0.554667-0.554667 0.725333-1.194667 1.194667-1.706667a18.773333 18.773333 0 0 0 4.181333-23.637333l-30.933333-53.333333c13.781333-23.253333 24.32-47.957333 31.317333-73.898667l54.954667-15.914667a18.730667 18.730667 0 0 0 13.312-19.541333c0.085333-0.725333 0.426667-1.322667 0.426666-2.048v-80.469333z" /></svg>