<?xml version="1.0" standalone="no"?><!DOCTYPE svg PUBLIC "-//W3C//DTD SVG 1.1//EN" "http://www.w3.org/Graphics/SVG/1.1/DTD/svg11.dtd"><svg class="icon" width="200px" height="200.00px" viewBox="0 0 1024 1024" version="1.1" xmlns="http://www.w3.org/2000/svg"><path fill="#333333" d="M222.464 658.346667l137.813333-134.613334 157.738667 196.693334a21.333333 21.333333 0 1 0 33.28-26.624l-32.938667-41.088 100.778667-84.48 183.466667 218.154666a49.194667 49.194667 0 0 1-41.813334 24.277334H263.253333A49.92 49.92 0 0 1 213.333333 760.746667v-97.365334a20.736 20.736 0 0 0 9.130667-4.992M832 469.76a21.333333 21.333333 0 0 0 21.333333-21.333333V263.210667a92.629333 92.629333 0 0 0-92.544-92.586667H263.253333A92.629333 92.629333 0 0 0 170.666667 263.253333V760.746667A92.586667 92.586667 0 0 0 263.253333 853.333333H760.746667a92.586667 92.586667 0 0 0 92.586666-92.586666V576.426667a21.333333 21.333333 0 0 0-42.666666 0v153.173333l-172.586667-205.141333c-0.853333-1.024-2.048-1.578667-2.986667-2.389334-1.237333-0.981333-2.346667-2.176-3.669333-2.858666-0.128-0.085333-0.298667-0.085333-0.426667-0.128a20.906667 20.906667 0 0 0-22.997333 2.816l-116.352 97.536-112.810667-140.8c-0.256-0.256-0.597333-0.341333-0.810666-0.64-0.256-0.256-0.341333-0.64-0.597334-0.896-0.810667-0.853333-1.834667-1.194667-2.688-1.834667-1.152-0.853333-2.133333-1.749333-3.413333-2.304-1.28-0.64-2.56-0.896-3.968-1.28-1.28-0.298667-2.517333-0.682667-3.84-0.768-1.450667-0.085333-2.773333 0.170667-4.181333 0.341333-1.28 0.170667-2.56 0.256-3.84 0.682667-1.408 0.426667-2.645333 1.28-3.925334 2.048-0.853333 0.512-1.92 0.725333-2.730666 1.408-0.298667 0.213333-0.384 0.554667-0.64 0.768-0.298667 0.256-0.682667 0.341333-0.938667 0.597333L213.333333 607.658667V263.210667A49.92 49.92 0 0 1 263.253333 213.290667H760.746667c27.477333 0 49.92 22.442667 49.92 49.92V448.426667a21.333333 21.333333 0 0 0 21.333333 21.333333M704.426667 342.656a22.229333 22.229333 0 1 1 0.042666-44.458667 22.229333 22.229333 0 0 1 0 44.458667m0-87.125333c-35.84 0-64.896 29.141333-64.896 64.896 0 35.84 29.098667 64.896 64.853334 64.896 35.797333 0 64.938667-29.098667 64.938666-64.853334 0-35.797333-29.141333-64.938667-64.896-64.938666" /></svg>