<?xml version="1.0" standalone="no"?><!DOCTYPE svg PUBLIC "-//W3C//DTD SVG 1.1//EN" "http://www.w3.org/Graphics/SVG/1.1/DTD/svg11.dtd"><svg class="icon" width="200px" height="200.00px" viewBox="0 0 1024 1024" version="1.1" xmlns="http://www.w3.org/2000/svg"><path fill="#333333" d="M807.680427 490.666667H509.611093V211.968C662.400427 221.610667 787.968427 338.986667 807.680427 490.666667zM469.33376 509.013333c0 0.341333 0.170667 0.597333 0.213333 0.938667 0 0.298667-0.213333 0.554667-0.213333 0.853333 0 11.093333 9.045333 20.181333 20.181333 20.181334h336a19.413333 19.413333 0 0 0 10.581334-3.456 19.84 19.84 0 0 0 14.08-20.138667C837.248427 318.592 678.86976 170.666667 489.472427 170.666667A20.138667 20.138667 0 0 0 469.33376 190.933333v318.122667zM829.056427 572.544a19.925333 19.925333 0 0 0-23.381334 16.298667A320.597333 320.597333 0 0 1 489.515093 853.333333c-177.152 0-321.237333-144.085333-321.237333-321.152a319.573333 319.573333 0 0 1 226.730667-307.114666 20.053333 20.053333 0 0 0 13.312-25.173334 20.010667 20.010667 0 0 0-25.173334-13.312 359.637333 359.637333 0 0 0-255.146666 345.6c0 199.338667 162.176 361.472 361.472 361.472a360.917333 360.917333 0 0 0 355.882666-297.728 20.181333 20.181333 0 0 0-16.298666-23.381333" /></svg>