<?xml version="1.0" standalone="no"?><!DOCTYPE svg PUBLIC "-//W3C//DTD SVG 1.1//EN" "http://www.w3.org/Graphics/SVG/1.1/DTD/svg11.dtd"><svg class="icon" width="200px" height="200.00px" viewBox="0 0 1024 1024" version="1.1" xmlns="http://www.w3.org/2000/svg"><path fill="#333333" d="M1008.205 511.675c0 91.71-204.565 287.396-496.14 287.396-284.108 0-496.144-192.45-496.144-287.396 0-94.947 212.924-287.082 496.144-287.082 293.818-0.001 496.191 192.188 496.14 287.082zM512.48 277.025c-132.026 0-239.086 105.13-239.086 234.808 0 129.675 107.06 234.805 239.086 234.805 132.13 0 239.193-105.13 239.193-234.805 0-129.678-107.063-234.807-239.193-234.807z m0 0M512.065 381.268c-72.112 0-130.566 58.455-130.566 130.565 0 72.108 58.454 130.562 130.566 130.562 72.108 0 130.562-58.454 130.562-130.562 0-72.11-58.454-130.565-130.562-130.565z m0 0" /></svg>